<mxfile host="app.diagrams.net" agent="Mozilla/5.0 (Windows NT 10.0; Win64; x64) AppleWebKit/537.36 (KHTML, like Gecko) Chrome/132.0.0.0 Safari/537.36 Edg/132.0.0.0" version="26.0.7">
  <diagram name="Page-1" id="9c5VqKnEQqEN2nJL3gRs">
    <mxGraphModel dx="2305" dy="1496" grid="0" gridSize="10" guides="1" tooltips="1" connect="1" arrows="1" fold="1" page="0" pageScale="1" pageWidth="827" pageHeight="1169" background="none" math="0" shadow="1">
      <root>
        <mxCell id="0" />
        <mxCell id="1" parent="0" />
        <mxCell id="eptEWOqKpFL5f9zr5Qak-438" value="Visiteur" style="shape=umlActor;verticalLabelPosition=bottom;verticalAlign=top;html=1;" parent="1" vertex="1">
          <mxGeometry x="-490" y="-323" width="30" height="60" as="geometry" />
        </mxCell>
        <mxCell id="eptEWOqKpFL5f9zr5Qak-456" style="edgeStyle=elbowEdgeStyle;rounded=0;orthogonalLoop=1;jettySize=auto;html=1;exitX=0.5;exitY=0.5;exitDx=0;exitDy=0;exitPerimeter=0;fontSize=12;startSize=8;endSize=8;endArrow=block;endFill=0;" parent="1" source="eptEWOqKpFL5f9zr5Qak-439" target="eptEWOqKpFL5f9zr5Qak-438" edge="1">
          <mxGeometry relative="1" as="geometry">
            <Array as="points">
              <mxPoint x="-757" y="259" />
            </Array>
          </mxGeometry>
        </mxCell>
        <mxCell id="eptEWOqKpFL5f9zr5Qak-439" value="Magasinier &amp;lt;&amp;lt;authentifié&amp;gt;&amp;gt;" style="shape=umlActor;verticalLabelPosition=bottom;verticalAlign=top;html=1;" parent="1" vertex="1">
          <mxGeometry x="-525" y="805" width="30" height="60" as="geometry" />
        </mxCell>
        <mxCell id="eptEWOqKpFL5f9zr5Qak-440" value="Utilisateur &amp;lt;&amp;lt;authentifié&amp;gt;&amp;gt;" style="shape=umlActor;verticalLabelPosition=bottom;verticalAlign=top;html=1;" parent="1" vertex="1">
          <mxGeometry x="-495" y="-29" width="30" height="60" as="geometry" />
        </mxCell>
        <mxCell id="eptEWOqKpFL5f9zr5Qak-441" value="Système Stripe &amp;lt;&amp;lt;secondaire&amp;gt;&amp;gt;" style="shape=umlActor;verticalLabelPosition=bottom;verticalAlign=top;html=1;" parent="1" vertex="1">
          <mxGeometry x="1405" y="355" width="30" height="60" as="geometry" />
        </mxCell>
        <mxCell id="eptEWOqKpFL5f9zr5Qak-442" value="" style="rounded=0;whiteSpace=wrap;html=1;" parent="1" vertex="1">
          <mxGeometry x="-374" y="-362.75" width="1667" height="1865.75" as="geometry" />
        </mxCell>
        <mxCell id="eptEWOqKpFL5f9zr5Qak-443" value="" style="rounded=1;whiteSpace=wrap;html=1;fillColor=#e1d5e7;strokeColor=#9673a6;" parent="1" vertex="1">
          <mxGeometry x="-323" y="-353" width="120" height="60" as="geometry" />
        </mxCell>
        <mxCell id="eptEWOqKpFL5f9zr5Qak-444" value="Système" style="text;strokeColor=none;fillColor=none;html=1;align=center;verticalAlign=middle;whiteSpace=wrap;rounded=0;fontSize=16;" parent="1" vertex="1">
          <mxGeometry x="-298" y="-344" width="60" height="30" as="geometry" />
        </mxCell>
        <mxCell id="eptEWOqKpFL5f9zr5Qak-450" value="" style="endArrow=none;html=1;rounded=0;fontSize=12;startSize=8;endSize=8;curved=1;exitX=0.447;exitY=0.653;exitDx=0;exitDy=0;exitPerimeter=0;" parent="1" source="eptEWOqKpFL5f9zr5Qak-438" edge="1">
          <mxGeometry width="50" height="50" relative="1" as="geometry">
            <mxPoint x="299" y="77" as="sourcePoint" />
            <mxPoint x="-122" y="-265" as="targetPoint" />
            <Array as="points">
              <mxPoint x="-319" y="-265" />
              <mxPoint x="-281" y="-252" />
              <mxPoint x="-205" y="-248" />
            </Array>
          </mxGeometry>
        </mxCell>
        <mxCell id="eptEWOqKpFL5f9zr5Qak-453" style="edgeStyle=orthogonalEdgeStyle;rounded=0;orthogonalLoop=1;jettySize=auto;html=1;exitX=0.5;exitY=0.5;exitDx=0;exitDy=0;exitPerimeter=0;fontSize=12;startSize=8;endSize=8;endArrow=block;endFill=0;" parent="1" source="eptEWOqKpFL5f9zr5Qak-451" edge="1">
          <mxGeometry relative="1" as="geometry">
            <Array as="points">
              <mxPoint x="-470" y="1073" />
              <mxPoint x="-470" y="1074" />
              <mxPoint x="-600" y="1074" />
              <mxPoint x="-600" y="855" />
              <mxPoint x="-512" y="855" />
            </Array>
            <mxPoint x="-512" y="855" as="targetPoint" />
          </mxGeometry>
        </mxCell>
        <mxCell id="eptEWOqKpFL5f9zr5Qak-451" value="Admin &amp;lt;&amp;lt;authentifié&amp;gt;&amp;gt;" style="shape=umlActor;verticalLabelPosition=bottom;verticalAlign=top;html=1;" parent="1" vertex="1">
          <mxGeometry x="-490" y="1043" width="30" height="59" as="geometry" />
        </mxCell>
        <mxCell id="eptEWOqKpFL5f9zr5Qak-452" style="edgeStyle=elbowEdgeStyle;rounded=0;orthogonalLoop=1;jettySize=auto;html=1;exitX=0.466;exitY=0.686;exitDx=0;exitDy=0;exitPerimeter=0;entryX=0.722;entryY=0.927;entryDx=0;entryDy=0;entryPerimeter=0;fontSize=12;startSize=8;endSize=8;endArrow=block;endFill=0;" parent="1" source="eptEWOqKpFL5f9zr5Qak-440" target="eptEWOqKpFL5f9zr5Qak-438" edge="1">
          <mxGeometry relative="1" as="geometry">
            <Array as="points">
              <mxPoint x="-567" y="-89" />
            </Array>
          </mxGeometry>
        </mxCell>
        <mxCell id="eptEWOqKpFL5f9zr5Qak-458" value="Rechercher et Filtrer des articles" style="ellipse;whiteSpace=wrap;html=1;" parent="1" vertex="1">
          <mxGeometry x="117" y="-311" width="140" height="70" as="geometry" />
        </mxCell>
        <mxCell id="eptEWOqKpFL5f9zr5Qak-459" value="Afficher la page d&#39;accueil" style="ellipse;whiteSpace=wrap;html=1;fillColor=#d5e8d4;strokeColor=#82b366;" parent="1" vertex="1">
          <mxGeometry x="-130" y="-317" width="140" height="70" as="geometry" />
        </mxCell>
        <mxCell id="eptEWOqKpFL5f9zr5Qak-460" value="Extends" style="endArrow=open;endSize=12;dashed=1;html=1;rounded=0;fontSize=12;curved=1;exitX=0.09;exitY=0.768;exitDx=0;exitDy=0;exitPerimeter=0;" parent="1" source="eptEWOqKpFL5f9zr5Qak-458" target="eptEWOqKpFL5f9zr5Qak-459" edge="1">
          <mxGeometry x="-0.0036" width="160" relative="1" as="geometry">
            <mxPoint x="62" y="-177" as="sourcePoint" />
            <mxPoint x="222" y="-177" as="targetPoint" />
            <mxPoint as="offset" />
          </mxGeometry>
        </mxCell>
        <mxCell id="eptEWOqKpFL5f9zr5Qak-461" value="Afficher le détail article" style="ellipse;whiteSpace=wrap;html=1;" parent="1" vertex="1">
          <mxGeometry x="349" y="-335" width="140" height="70" as="geometry" />
        </mxCell>
        <mxCell id="eptEWOqKpFL5f9zr5Qak-462" value="Extends" style="endArrow=open;endSize=12;dashed=1;html=1;rounded=0;fontSize=12;curved=1;exitX=0;exitY=0.5;exitDx=0;exitDy=0;entryX=0.926;entryY=0.698;entryDx=0;entryDy=0;entryPerimeter=0;" parent="1" source="eptEWOqKpFL5f9zr5Qak-461" target="eptEWOqKpFL5f9zr5Qak-458" edge="1">
          <mxGeometry x="0.0098" width="160" relative="1" as="geometry">
            <mxPoint x="438" y="-216" as="sourcePoint" />
            <mxPoint x="315" y="-221" as="targetPoint" />
            <Array as="points">
              <mxPoint x="327" y="-241" />
            </Array>
            <mxPoint as="offset" />
          </mxGeometry>
        </mxCell>
        <mxCell id="eptEWOqKpFL5f9zr5Qak-463" value="Ajouter au panier" style="ellipse;whiteSpace=wrap;html=1;" parent="1" vertex="1">
          <mxGeometry x="561" y="-261" width="140" height="70" as="geometry" />
        </mxCell>
        <mxCell id="eptEWOqKpFL5f9zr5Qak-465" value="Extends" style="endArrow=open;endSize=12;dashed=1;html=1;rounded=0;fontSize=12;curved=1;exitX=0;exitY=0;exitDx=0;exitDy=0;" parent="1" source="eptEWOqKpFL5f9zr5Qak-463" target="eptEWOqKpFL5f9zr5Qak-461" edge="1">
          <mxGeometry x="-0.0331" y="1" width="160" relative="1" as="geometry">
            <mxPoint x="607" y="-241" as="sourcePoint" />
            <mxPoint x="512" y="-249" as="targetPoint" />
            <mxPoint as="offset" />
          </mxGeometry>
        </mxCell>
        <mxCell id="eptEWOqKpFL5f9zr5Qak-466" value="Ajouter au panier" style="ellipse;whiteSpace=wrap;html=1;" parent="1" vertex="1">
          <mxGeometry x="-31" y="-176" width="140" height="70" as="geometry" />
        </mxCell>
        <mxCell id="eptEWOqKpFL5f9zr5Qak-467" value="Extends" style="endArrow=open;endSize=12;dashed=1;html=1;rounded=0;fontSize=12;curved=1;exitX=0.293;exitY=0.114;exitDx=0;exitDy=0;exitPerimeter=0;entryX=0.682;entryY=0.929;entryDx=0;entryDy=0;entryPerimeter=0;" parent="1" source="eptEWOqKpFL5f9zr5Qak-466" target="eptEWOqKpFL5f9zr5Qak-459" edge="1">
          <mxGeometry x="-0.0036" width="160" relative="1" as="geometry">
            <mxPoint x="94" y="-221" as="sourcePoint" />
            <mxPoint x="7" y="-226" as="targetPoint" />
            <mxPoint as="offset" />
          </mxGeometry>
        </mxCell>
        <mxCell id="eptEWOqKpFL5f9zr5Qak-468" value="Retirer un article du panier" style="ellipse;whiteSpace=wrap;html=1;" parent="1" vertex="1">
          <mxGeometry x="302" y="-209" width="140" height="70" as="geometry" />
        </mxCell>
        <mxCell id="eptEWOqKpFL5f9zr5Qak-469" value="Extends" style="endArrow=open;endSize=12;dashed=1;html=1;rounded=0;fontSize=12;curved=1;exitX=0;exitY=0;exitDx=0;exitDy=0;" parent="1" source="eptEWOqKpFL5f9zr5Qak-468" target="eptEWOqKpFL5f9zr5Qak-466" edge="1">
          <mxGeometry x="-0.0931" y="4" width="160" relative="1" as="geometry">
            <mxPoint x="313" y="-135" as="sourcePoint" />
            <mxPoint x="243" y="-181" as="targetPoint" />
            <mxPoint as="offset" />
          </mxGeometry>
        </mxCell>
        <mxCell id="eptEWOqKpFL5f9zr5Qak-470" value="Modifier quantité" style="ellipse;whiteSpace=wrap;html=1;" parent="1" vertex="1">
          <mxGeometry x="273" y="-110" width="140" height="70" as="geometry" />
        </mxCell>
        <mxCell id="eptEWOqKpFL5f9zr5Qak-471" value="Extends" style="endArrow=open;endSize=12;dashed=1;html=1;rounded=0;fontSize=12;curved=1;exitX=0.4;exitY=0.053;exitDx=0;exitDy=0;entryX=0.727;entryY=0.914;entryDx=0;entryDy=0;entryPerimeter=0;exitPerimeter=0;" parent="1" source="eptEWOqKpFL5f9zr5Qak-470" target="eptEWOqKpFL5f9zr5Qak-466" edge="1">
          <mxGeometry x="-0.0506" y="1" width="160" relative="1" as="geometry">
            <mxPoint x="183" y="-101" as="sourcePoint" />
            <mxPoint x="63" y="-104" as="targetPoint" />
            <mxPoint x="-1" as="offset" />
          </mxGeometry>
        </mxCell>
        <mxCell id="eptEWOqKpFL5f9zr5Qak-472" value="Valider le panier" style="ellipse;whiteSpace=wrap;html=1;" parent="1" vertex="1">
          <mxGeometry x="49" y="-57" width="140" height="70" as="geometry" />
        </mxCell>
        <mxCell id="eptEWOqKpFL5f9zr5Qak-477" value="Extends" style="endArrow=open;endSize=12;dashed=1;html=1;rounded=0;fontSize=12;curved=1;exitX=0.5;exitY=0;exitDx=0;exitDy=0;entryX=0.5;entryY=1;entryDx=0;entryDy=0;" parent="1" source="eptEWOqKpFL5f9zr5Qak-472" target="eptEWOqKpFL5f9zr5Qak-466" edge="1">
          <mxGeometry x="-0.0506" y="1" width="160" relative="1" as="geometry">
            <mxPoint x="178" y="-76" as="sourcePoint" />
            <mxPoint x="-6" y="-77" as="targetPoint" />
            <mxPoint x="-1" as="offset" />
          </mxGeometry>
        </mxCell>
        <mxCell id="eptEWOqKpFL5f9zr5Qak-478" value="Valider la commande" style="ellipse;whiteSpace=wrap;html=1;" parent="1" vertex="1">
          <mxGeometry x="245" y="19" width="140" height="70" as="geometry" />
        </mxCell>
        <mxCell id="eptEWOqKpFL5f9zr5Qak-479" value="S&#39;authentifier" style="ellipse;whiteSpace=wrap;html=1;" parent="1" vertex="1">
          <mxGeometry x="-63" y="9" width="140" height="70" as="geometry" />
        </mxCell>
        <mxCell id="eptEWOqKpFL5f9zr5Qak-480" value="Extends" style="endArrow=open;endSize=12;dashed=1;html=1;rounded=0;fontSize=12;curved=1;exitX=0;exitY=0;exitDx=0;exitDy=0;entryX=1;entryY=0.5;entryDx=0;entryDy=0;" parent="1" source="eptEWOqKpFL5f9zr5Qak-478" target="eptEWOqKpFL5f9zr5Qak-472" edge="1">
          <mxGeometry x="-0.0506" y="1" width="160" relative="1" as="geometry">
            <mxPoint x="261" y="-28" as="sourcePoint" />
            <mxPoint x="77" y="-29" as="targetPoint" />
            <mxPoint x="-1" as="offset" />
          </mxGeometry>
        </mxCell>
        <mxCell id="eptEWOqKpFL5f9zr5Qak-481" value="Include" style="endArrow=open;endSize=12;dashed=1;html=1;rounded=0;fontSize=12;curved=1;entryX=1;entryY=0;entryDx=0;entryDy=0;" parent="1" source="eptEWOqKpFL5f9zr5Qak-478" target="eptEWOqKpFL5f9zr5Qak-479" edge="1">
          <mxGeometry x="-0.0506" y="1" width="160" relative="1" as="geometry">
            <mxPoint x="265" y="57" as="sourcePoint" />
            <mxPoint x="140" y="34" as="targetPoint" />
            <mxPoint x="-1" as="offset" />
          </mxGeometry>
        </mxCell>
        <mxCell id="eptEWOqKpFL5f9zr5Qak-482" value="S&#39;inscrire" style="ellipse;whiteSpace=wrap;html=1;" parent="1" vertex="1">
          <mxGeometry x="-137" y="-106" width="140" height="70" as="geometry" />
        </mxCell>
        <mxCell id="eptEWOqKpFL5f9zr5Qak-483" value="Extends" style="endArrow=open;endSize=12;dashed=1;html=1;rounded=0;fontSize=12;curved=1;" parent="1" source="eptEWOqKpFL5f9zr5Qak-482" target="eptEWOqKpFL5f9zr5Qak-459" edge="1">
          <mxGeometry x="-0.0036" width="160" relative="1" as="geometry">
            <mxPoint x="-108" y="-137" as="sourcePoint" />
            <mxPoint x="-121" y="-203" as="targetPoint" />
            <mxPoint as="offset" />
          </mxGeometry>
        </mxCell>
        <mxCell id="eptEWOqKpFL5f9zr5Qak-484" value="Extends" style="endArrow=open;endSize=12;dashed=1;html=1;rounded=0;fontSize=12;curved=1;entryX=0.5;entryY=1;entryDx=0;entryDy=0;" parent="1" source="eptEWOqKpFL5f9zr5Qak-479" target="eptEWOqKpFL5f9zr5Qak-482" edge="1">
          <mxGeometry x="-0.0506" y="1" width="160" relative="1" as="geometry">
            <mxPoint x="117" y="161" as="sourcePoint" />
            <mxPoint x="-8" y="138" as="targetPoint" />
            <mxPoint x="-1" as="offset" />
          </mxGeometry>
        </mxCell>
        <mxCell id="eptEWOqKpFL5f9zr5Qak-486" value="Donner un avis" style="ellipse;whiteSpace=wrap;html=1;" parent="1" vertex="1">
          <mxGeometry x="175" y="439" width="140" height="70" as="geometry" />
        </mxCell>
        <mxCell id="eptEWOqKpFL5f9zr5Qak-490" value="Afficher l&#39;historique commande" style="ellipse;whiteSpace=wrap;html=1;" parent="1" vertex="1">
          <mxGeometry x="-311" y="518" width="140" height="70" as="geometry" />
        </mxCell>
        <mxCell id="TKQqoJFlodi9gz9uk7SD-3" value="Afficher les commandes en cours" style="ellipse;whiteSpace=wrap;html=1;" parent="1" vertex="1">
          <mxGeometry x="-302" y="637" width="140" height="70" as="geometry" />
        </mxCell>
        <mxCell id="TKQqoJFlodi9gz9uk7SD-8" value="" style="endArrow=none;html=1;rounded=0;exitX=0.5;exitY=0;exitDx=0;exitDy=0;entryX=0;entryY=0.3333333333333333;entryDx=0;entryDy=0;entryPerimeter=0;edgeStyle=elbowEdgeStyle;elbow=vertical;" parent="1" source="gUUMjSr0hA3NpXQRJFyO-8" target="eptEWOqKpFL5f9zr5Qak-441" edge="1">
          <mxGeometry width="50" height="50" relative="1" as="geometry">
            <mxPoint x="-234" y="342.02" as="sourcePoint" />
            <mxPoint x="1419.6599999999999" y="197" as="targetPoint" />
            <Array as="points">
              <mxPoint x="599" y="339" />
            </Array>
          </mxGeometry>
        </mxCell>
        <mxCell id="gUUMjSr0hA3NpXQRJFyO-1" value="Envoyer Email" style="ellipse;whiteSpace=wrap;html=1;fillColor=#ffcccc;strokeColor=#36393d;" parent="1" vertex="1">
          <mxGeometry x="-308" y="-168" width="140" height="70" as="geometry" />
        </mxCell>
        <mxCell id="gUUMjSr0hA3NpXQRJFyO-2" value="Email validation inscription" style="ellipse;whiteSpace=wrap;html=1;" parent="1" vertex="1">
          <mxGeometry x="-308" y="-57" width="140" height="70" as="geometry" />
        </mxCell>
        <mxCell id="gUUMjSr0hA3NpXQRJFyO-3" style="edgeStyle=elbowEdgeStyle;rounded=0;orthogonalLoop=1;jettySize=auto;html=1;fontSize=12;endArrow=block;endFill=0;" parent="1" source="gUUMjSr0hA3NpXQRJFyO-2" target="gUUMjSr0hA3NpXQRJFyO-1" edge="1">
          <mxGeometry relative="1" as="geometry">
            <Array as="points">
              <mxPoint x="-317.5" y="-47" />
            </Array>
            <mxPoint x="-231.5" y="54" as="sourcePoint" />
            <mxPoint x="-218.5" y="-225" as="targetPoint" />
          </mxGeometry>
        </mxCell>
        <mxCell id="gUUMjSr0hA3NpXQRJFyO-4" value="include" style="endArrow=open;endSize=12;dashed=1;html=1;rounded=0;fontSize=12;curved=1;entryX=0.971;entryY=0.329;entryDx=0;entryDy=0;entryPerimeter=0;exitX=0;exitY=0.5;exitDx=0;exitDy=0;" parent="1" source="eptEWOqKpFL5f9zr5Qak-482" target="gUUMjSr0hA3NpXQRJFyO-1" edge="1">
          <mxGeometry x="-0.0506" y="1" width="160" relative="1" as="geometry">
            <mxPoint x="-148" y="-62" as="sourcePoint" />
            <mxPoint x="-119" y="-179" as="targetPoint" />
            <mxPoint x="-1" as="offset" />
          </mxGeometry>
        </mxCell>
        <mxCell id="gUUMjSr0hA3NpXQRJFyO-5" value="Se déconnecter" style="ellipse;whiteSpace=wrap;html=1;" parent="1" vertex="1">
          <mxGeometry x="-308" y="31" width="117" height="57" as="geometry" />
        </mxCell>
        <mxCell id="gUUMjSr0hA3NpXQRJFyO-6" value="" style="endArrow=none;html=1;rounded=0;fontSize=12;startSize=8;endSize=8;exitX=0.5;exitY=0.5;exitDx=0;exitDy=0;exitPerimeter=0;edgeStyle=elbowEdgeStyle;" parent="1" source="eptEWOqKpFL5f9zr5Qak-440" target="gUUMjSr0hA3NpXQRJFyO-5" edge="1">
          <mxGeometry width="50" height="50" relative="1" as="geometry">
            <mxPoint x="-482" y="27" as="sourcePoint" />
            <mxPoint x="-189" y="78" as="targetPoint" />
          </mxGeometry>
        </mxCell>
        <mxCell id="gUUMjSr0hA3NpXQRJFyO-8" value="Payer une commande" style="ellipse;whiteSpace=wrap;html=1;" parent="1" vertex="1">
          <mxGeometry x="-296.5" y="408" width="117" height="58" as="geometry" />
        </mxCell>
        <mxCell id="gUUMjSr0hA3NpXQRJFyO-9" value="Envoyer Email" style="ellipse;whiteSpace=wrap;html=1;fillColor=#ffcccc;strokeColor=#36393d;" parent="1" vertex="1">
          <mxGeometry x="-98" y="401" width="117" height="62" as="geometry" />
        </mxCell>
        <mxCell id="gUUMjSr0hA3NpXQRJFyO-10" value="Include" style="endArrow=open;endSize=12;dashed=1;html=1;rounded=0;fontSize=12;curved=1;" parent="1" source="gUUMjSr0hA3NpXQRJFyO-8" target="gUUMjSr0hA3NpXQRJFyO-9" edge="1">
          <mxGeometry x="-0.0506" y="1" width="160" relative="1" as="geometry">
            <mxPoint x="-67" y="334" as="sourcePoint" />
            <mxPoint x="-117" y="257" as="targetPoint" />
            <mxPoint x="-1" as="offset" />
          </mxGeometry>
        </mxCell>
        <mxCell id="gUUMjSr0hA3NpXQRJFyO-11" value="Email confirmation commande" style="ellipse;whiteSpace=wrap;html=1;" parent="1" vertex="1">
          <mxGeometry x="119" y="363" width="112" height="57.5" as="geometry" />
        </mxCell>
        <mxCell id="gUUMjSr0hA3NpXQRJFyO-12" style="edgeStyle=elbowEdgeStyle;rounded=0;orthogonalLoop=1;jettySize=auto;html=1;fontSize=12;endArrow=block;endFill=0;exitX=0;exitY=1;exitDx=0;exitDy=0;entryX=1;entryY=0.5;entryDx=0;entryDy=0;" parent="1" source="gUUMjSr0hA3NpXQRJFyO-11" target="gUUMjSr0hA3NpXQRJFyO-9" edge="1">
          <mxGeometry relative="1" as="geometry">
            <Array as="points">
              <mxPoint x="69" y="365" />
            </Array>
            <mxPoint x="-31" y="394" as="sourcePoint" />
            <mxPoint x="-52" y="308" as="targetPoint" />
          </mxGeometry>
        </mxCell>
        <mxCell id="gUUMjSr0hA3NpXQRJFyO-15" value="" style="endArrow=none;html=1;rounded=0;edgeStyle=elbowEdgeStyle;" parent="1" target="gUUMjSr0hA3NpXQRJFyO-8" edge="1">
          <mxGeometry width="50" height="50" relative="1" as="geometry">
            <mxPoint x="-481" y="18.5" as="sourcePoint" />
            <mxPoint x="140" y="461.5" as="targetPoint" />
            <Array as="points">
              <mxPoint x="-448" y="132" />
            </Array>
          </mxGeometry>
        </mxCell>
        <mxCell id="gUUMjSr0hA3NpXQRJFyO-16" value="" style="endArrow=none;html=1;rounded=0;exitX=0;exitY=1;exitDx=0;exitDy=0;exitPerimeter=0;edgeStyle=elbowEdgeStyle;" parent="1" source="eptEWOqKpFL5f9zr5Qak-440" target="eptEWOqKpFL5f9zr5Qak-490" edge="1">
          <mxGeometry width="50" height="50" relative="1" as="geometry">
            <mxPoint x="-511" y="178" as="sourcePoint" />
            <mxPoint x="-296" y="354.5" as="targetPoint" />
            <Array as="points">
              <mxPoint x="-480" y="191" />
            </Array>
          </mxGeometry>
        </mxCell>
        <mxCell id="gUUMjSr0hA3NpXQRJFyO-17" value="Afficher détail d&#39;une commande" style="ellipse;whiteSpace=wrap;html=1;fillColor=#fff2cc;strokeColor=#d6b656;" parent="1" vertex="1">
          <mxGeometry x="-88" y="494" width="140" height="70" as="geometry" />
        </mxCell>
        <mxCell id="gUUMjSr0hA3NpXQRJFyO-18" value="Extends" style="endArrow=open;endSize=12;dashed=1;html=1;rounded=0;fontSize=12;curved=1;" parent="1" source="gUUMjSr0hA3NpXQRJFyO-17" target="eptEWOqKpFL5f9zr5Qak-490" edge="1">
          <mxGeometry x="-0.0506" y="1" width="160" relative="1" as="geometry">
            <mxPoint x="-46" y="542" as="sourcePoint" />
            <mxPoint x="-96" y="465" as="targetPoint" />
            <mxPoint x="-1" as="offset" />
          </mxGeometry>
        </mxCell>
        <mxCell id="gUUMjSr0hA3NpXQRJFyO-21" value="Extends" style="endArrow=open;endSize=12;dashed=1;html=1;rounded=0;fontSize=12;curved=1;exitX=0;exitY=0.5;exitDx=0;exitDy=0;" parent="1" source="eptEWOqKpFL5f9zr5Qak-486" target="gUUMjSr0hA3NpXQRJFyO-17" edge="1">
          <mxGeometry x="-0.0123" width="160" relative="1" as="geometry">
            <mxPoint x="397" y="330" as="sourcePoint" />
            <mxPoint x="297.6600000000003" y="474.81999999999994" as="targetPoint" />
            <mxPoint as="offset" />
          </mxGeometry>
        </mxCell>
        <mxCell id="gUUMjSr0hA3NpXQRJFyO-23" value="" style="endArrow=none;html=1;rounded=0;exitX=0.292;exitY=0.779;exitDx=0;exitDy=0;exitPerimeter=0;edgeStyle=elbowEdgeStyle;" parent="1" source="eptEWOqKpFL5f9zr5Qak-440" target="TKQqoJFlodi9gz9uk7SD-3" edge="1">
          <mxGeometry width="50" height="50" relative="1" as="geometry">
            <mxPoint x="-541" y="72" as="sourcePoint" />
            <mxPoint x="-323" y="381" as="targetPoint" />
            <Array as="points">
              <mxPoint x="-542" y="224" />
            </Array>
          </mxGeometry>
        </mxCell>
        <mxCell id="gUUMjSr0hA3NpXQRJFyO-24" value="Afficher détail d&#39;une commande" style="ellipse;whiteSpace=wrap;html=1;fillColor=#fff2cc;strokeColor=#d6b656;" parent="1" vertex="1">
          <mxGeometry x="-91" y="598" width="140" height="70" as="geometry" />
        </mxCell>
        <mxCell id="gUUMjSr0hA3NpXQRJFyO-25" value="Extends" style="endArrow=open;endSize=12;dashed=1;html=1;rounded=0;fontSize=12;curved=1;entryX=0.971;entryY=0.61;entryDx=0;entryDy=0;entryPerimeter=0;" parent="1" source="gUUMjSr0hA3NpXQRJFyO-24" target="TKQqoJFlodi9gz9uk7SD-3" edge="1">
          <mxGeometry x="-0.0123" width="160" relative="1" as="geometry">
            <mxPoint x="-58" y="439" as="sourcePoint" />
            <mxPoint x="-139" y="439" as="targetPoint" />
            <mxPoint as="offset" />
          </mxGeometry>
        </mxCell>
        <mxCell id="gUUMjSr0hA3NpXQRJFyO-26" value="Afficher détail d&#39;un article" style="ellipse;whiteSpace=wrap;html=1;fillColor=#dae8fc;strokeColor=#6c8ebf;" parent="1" vertex="1">
          <mxGeometry x="165" y="528" width="140" height="70" as="geometry" />
        </mxCell>
        <mxCell id="gUUMjSr0hA3NpXQRJFyO-27" value="Extends" style="endArrow=open;endSize=12;dashed=1;html=1;rounded=0;fontSize=12;curved=1;exitX=0;exitY=0.5;exitDx=0;exitDy=0;" parent="1" source="gUUMjSr0hA3NpXQRJFyO-26" target="gUUMjSr0hA3NpXQRJFyO-24" edge="1">
          <mxGeometry x="0.0123" width="160" relative="1" as="geometry">
            <mxPoint x="152" y="453.09000000000003" as="sourcePoint" />
            <mxPoint x="71" y="453.09000000000003" as="targetPoint" />
            <mxPoint x="1" as="offset" />
          </mxGeometry>
        </mxCell>
        <mxCell id="gUUMjSr0hA3NpXQRJFyO-28" value="Annuler une commande" style="ellipse;whiteSpace=wrap;html=1;" parent="1" vertex="1">
          <mxGeometry x="109" y="609" width="140" height="70" as="geometry" />
        </mxCell>
        <mxCell id="gUUMjSr0hA3NpXQRJFyO-29" value="Extends" style="endArrow=open;endSize=12;dashed=1;html=1;rounded=0;fontSize=12;curved=1;" parent="1" source="gUUMjSr0hA3NpXQRJFyO-28" target="gUUMjSr0hA3NpXQRJFyO-24" edge="1">
          <mxGeometry x="0.0123" width="160" relative="1" as="geometry">
            <mxPoint x="147" y="525" as="sourcePoint" />
            <mxPoint x="53" y="519" as="targetPoint" />
            <mxPoint x="1" as="offset" />
          </mxGeometry>
        </mxCell>
        <mxCell id="gUUMjSr0hA3NpXQRJFyO-30" value="Envoyer Email" style="ellipse;whiteSpace=wrap;html=1;fillColor=#ffcccc;strokeColor=#36393d;" parent="1" vertex="1">
          <mxGeometry x="329" y="609" width="140" height="70" as="geometry" />
        </mxCell>
        <mxCell id="gUUMjSr0hA3NpXQRJFyO-31" value="Include" style="endArrow=open;endSize=12;dashed=1;html=1;rounded=0;fontSize=12;curved=1;exitX=1;exitY=0.5;exitDx=0;exitDy=0;entryX=0;entryY=0.5;entryDx=0;entryDy=0;" parent="1" source="gUUMjSr0hA3NpXQRJFyO-28" target="gUUMjSr0hA3NpXQRJFyO-30" edge="1">
          <mxGeometry x="0.0292" width="160" relative="1" as="geometry">
            <mxPoint x="268" y="547" as="sourcePoint" />
            <mxPoint x="330" y="548" as="targetPoint" />
            <mxPoint as="offset" />
            <Array as="points" />
          </mxGeometry>
        </mxCell>
        <mxCell id="gUUMjSr0hA3NpXQRJFyO-32" value="Email Annulation commande" style="ellipse;whiteSpace=wrap;html=1;" parent="1" vertex="1">
          <mxGeometry x="519" y="592" width="140" height="70" as="geometry" />
        </mxCell>
        <mxCell id="gUUMjSr0hA3NpXQRJFyO-33" style="edgeStyle=elbowEdgeStyle;rounded=0;orthogonalLoop=1;jettySize=auto;html=1;fontSize=12;endArrow=block;endFill=0;" parent="1" source="gUUMjSr0hA3NpXQRJFyO-32" target="gUUMjSr0hA3NpXQRJFyO-30" edge="1">
          <mxGeometry relative="1" as="geometry">
            <Array as="points">
              <mxPoint x="477" y="580" />
            </Array>
            <mxPoint x="445" y="432" as="sourcePoint" />
            <mxPoint x="377" y="433" as="targetPoint" />
          </mxGeometry>
        </mxCell>
        <mxCell id="gUUMjSr0hA3NpXQRJFyO-34" value="Afficher profil" style="ellipse;whiteSpace=wrap;html=1;" parent="1" vertex="1">
          <mxGeometry x="-290" y="139" width="119" height="63" as="geometry" />
        </mxCell>
        <mxCell id="gUUMjSr0hA3NpXQRJFyO-35" value="" style="endArrow=none;html=1;rounded=0;fontSize=12;startSize=8;endSize=8;exitX=0.623;exitY=0.751;exitDx=0;exitDy=0;exitPerimeter=0;edgeStyle=elbowEdgeStyle;" parent="1" source="eptEWOqKpFL5f9zr5Qak-440" target="gUUMjSr0hA3NpXQRJFyO-34" edge="1">
          <mxGeometry width="50" height="50" relative="1" as="geometry">
            <mxPoint x="-475" y="54" as="sourcePoint" />
            <mxPoint x="-272" y="117" as="targetPoint" />
            <Array as="points">
              <mxPoint x="-400" y="81" />
            </Array>
          </mxGeometry>
        </mxCell>
        <mxCell id="gUUMjSr0hA3NpXQRJFyO-36" value="Modifier les infos du profil" style="ellipse;whiteSpace=wrap;html=1;" parent="1" vertex="1">
          <mxGeometry x="-73" y="148.5" width="83" height="44" as="geometry" />
        </mxCell>
        <mxCell id="gUUMjSr0hA3NpXQRJFyO-37" value="Modifier password" style="ellipse;whiteSpace=wrap;html=1;" parent="1" vertex="1">
          <mxGeometry x="-133" y="85" width="81" height="43" as="geometry" />
        </mxCell>
        <mxCell id="gUUMjSr0hA3NpXQRJFyO-38" value="Extends" style="endArrow=open;endSize=12;dashed=1;html=1;rounded=0;fontSize=12;curved=1;" parent="1" source="gUUMjSr0hA3NpXQRJFyO-37" target="gUUMjSr0hA3NpXQRJFyO-34" edge="1">
          <mxGeometry x="-0.2211" y="3" width="160" relative="1" as="geometry">
            <mxPoint x="-102" y="133" as="sourcePoint" />
            <mxPoint x="-179" y="82" as="targetPoint" />
            <mxPoint as="offset" />
          </mxGeometry>
        </mxCell>
        <mxCell id="gUUMjSr0hA3NpXQRJFyO-39" value="Extends" style="endArrow=open;endSize=12;dashed=1;html=1;rounded=0;fontSize=12;curved=1;" parent="1" source="gUUMjSr0hA3NpXQRJFyO-36" target="gUUMjSr0hA3NpXQRJFyO-34" edge="1">
          <mxGeometry x="-0.1482" y="1" width="160" relative="1" as="geometry">
            <mxPoint x="-137" y="110" as="sourcePoint" />
            <mxPoint x="-188" y="140" as="targetPoint" />
            <mxPoint as="offset" />
          </mxGeometry>
        </mxCell>
        <mxCell id="gUUMjSr0hA3NpXQRJFyO-40" value="Supprimer&amp;nbsp; compte" style="ellipse;whiteSpace=wrap;html=1;" parent="1" vertex="1">
          <mxGeometry x="-130" y="206.5" width="103" height="51" as="geometry" />
        </mxCell>
        <mxCell id="gUUMjSr0hA3NpXQRJFyO-41" value="Extends" style="endArrow=open;endSize=12;dashed=1;html=1;rounded=0;fontSize=12;curved=1;entryX=0.937;entryY=0.686;entryDx=0;entryDy=0;entryPerimeter=0;" parent="1" source="gUUMjSr0hA3NpXQRJFyO-40" target="gUUMjSr0hA3NpXQRJFyO-34" edge="1">
          <mxGeometry x="-0.1482" y="1" width="160" relative="1" as="geometry">
            <mxPoint x="-73" y="143" as="sourcePoint" />
            <mxPoint x="-167" y="167" as="targetPoint" />
            <mxPoint as="offset" />
          </mxGeometry>
        </mxCell>
        <mxCell id="gUUMjSr0hA3NpXQRJFyO-42" value="Envoyer Email" style="ellipse;whiteSpace=wrap;html=1;fillColor=#ffcccc;strokeColor=#36393d;" parent="1" vertex="1">
          <mxGeometry x="123" y="135" width="117" height="62" as="geometry" />
        </mxCell>
        <mxCell id="gUUMjSr0hA3NpXQRJFyO-44" value="Include" style="endArrow=open;endSize=12;dashed=1;html=1;rounded=0;fontSize=12;curved=1;exitX=0.945;exitY=0.681;exitDx=0;exitDy=0;exitPerimeter=0;" parent="1" source="gUUMjSr0hA3NpXQRJFyO-37" target="gUUMjSr0hA3NpXQRJFyO-42" edge="1">
          <mxGeometry x="0.0103" width="160" relative="1" as="geometry">
            <mxPoint x="44" y="107" as="sourcePoint" />
            <mxPoint x="-19" y="136" as="targetPoint" />
            <mxPoint as="offset" />
          </mxGeometry>
        </mxCell>
        <mxCell id="gUUMjSr0hA3NpXQRJFyO-45" value="Include" style="endArrow=open;endSize=12;dashed=1;html=1;rounded=0;fontSize=12;curved=1;entryX=0.026;entryY=0.672;entryDx=0;entryDy=0;entryPerimeter=0;" parent="1" source="gUUMjSr0hA3NpXQRJFyO-36" target="gUUMjSr0hA3NpXQRJFyO-42" edge="1">
          <mxGeometry x="0.0103" width="160" relative="1" as="geometry">
            <mxPoint x="-19" y="157" as="sourcePoint" />
            <mxPoint x="189" y="202" as="targetPoint" />
            <mxPoint as="offset" />
          </mxGeometry>
        </mxCell>
        <mxCell id="gUUMjSr0hA3NpXQRJFyO-46" value="Include" style="endArrow=open;endSize=12;dashed=1;html=1;rounded=0;fontSize=12;curved=1;entryX=0.192;entryY=0.932;entryDx=0;entryDy=0;entryPerimeter=0;" parent="1" source="gUUMjSr0hA3NpXQRJFyO-40" target="gUUMjSr0hA3NpXQRJFyO-42" edge="1">
          <mxGeometry x="0.0103" width="160" relative="1" as="geometry">
            <mxPoint x="19" y="175" as="sourcePoint" />
            <mxPoint x="142" y="159" as="targetPoint" />
            <mxPoint as="offset" />
          </mxGeometry>
        </mxCell>
        <mxCell id="gUUMjSr0hA3NpXQRJFyO-47" value="Email MAJ password" style="ellipse;whiteSpace=wrap;html=1;" parent="1" vertex="1">
          <mxGeometry x="299" y="108" width="98" height="49" as="geometry" />
        </mxCell>
        <mxCell id="gUUMjSr0hA3NpXQRJFyO-48" value="Email MAJ profil" style="ellipse;whiteSpace=wrap;html=1;" parent="1" vertex="1">
          <mxGeometry x="305" y="174" width="98" height="49" as="geometry" />
        </mxCell>
        <mxCell id="gUUMjSr0hA3NpXQRJFyO-49" value="Email suppression compte" style="ellipse;whiteSpace=wrap;html=1;" parent="1" vertex="1">
          <mxGeometry x="296" y="236" width="98" height="49" as="geometry" />
        </mxCell>
        <mxCell id="gUUMjSr0hA3NpXQRJFyO-50" style="edgeStyle=elbowEdgeStyle;rounded=0;orthogonalLoop=1;jettySize=auto;html=1;fontSize=12;endArrow=block;endFill=0;" parent="1" source="gUUMjSr0hA3NpXQRJFyO-47" target="gUUMjSr0hA3NpXQRJFyO-42" edge="1">
          <mxGeometry relative="1" as="geometry">
            <Array as="points">
              <mxPoint x="212" y="117" />
            </Array>
            <mxPoint x="368" y="120" as="sourcePoint" />
            <mxPoint x="249" y="202" as="targetPoint" />
          </mxGeometry>
        </mxCell>
        <mxCell id="gUUMjSr0hA3NpXQRJFyO-52" style="edgeStyle=elbowEdgeStyle;rounded=0;orthogonalLoop=1;jettySize=auto;html=1;fontSize=12;endArrow=block;endFill=0;entryX=0.891;entryY=0.74;entryDx=0;entryDy=0;entryPerimeter=0;exitX=0.01;exitY=0.316;exitDx=0;exitDy=0;exitPerimeter=0;" parent="1" source="gUUMjSr0hA3NpXQRJFyO-48" target="gUUMjSr0hA3NpXQRJFyO-42" edge="1">
          <mxGeometry relative="1" as="geometry">
            <Array as="points">
              <mxPoint x="242" y="187" />
            </Array>
            <mxPoint x="292" y="187" as="sourcePoint" />
            <mxPoint x="242" y="197" as="targetPoint" />
          </mxGeometry>
        </mxCell>
        <mxCell id="gUUMjSr0hA3NpXQRJFyO-54" style="edgeStyle=elbowEdgeStyle;rounded=0;orthogonalLoop=1;jettySize=auto;html=1;fontSize=12;endArrow=block;endFill=0;entryX=0.605;entryY=1.002;entryDx=0;entryDy=0;entryPerimeter=0;exitX=0;exitY=0.5;exitDx=0;exitDy=0;" parent="1" source="gUUMjSr0hA3NpXQRJFyO-49" target="gUUMjSr0hA3NpXQRJFyO-42" edge="1">
          <mxGeometry relative="1" as="geometry">
            <Array as="points">
              <mxPoint x="227" y="233" />
            </Array>
            <mxPoint x="302" y="226" as="sourcePoint" />
            <mxPoint x="229" y="218" as="targetPoint" />
          </mxGeometry>
        </mxCell>
        <mxCell id="gUUMjSr0hA3NpXQRJFyO-55" style="edgeStyle=none;curved=1;rounded=0;orthogonalLoop=1;jettySize=auto;html=1;exitX=0.5;exitY=1;exitDx=0;exitDy=0;fontSize=12;startSize=8;endSize=8;" parent="1" source="gUUMjSr0hA3NpXQRJFyO-24" target="gUUMjSr0hA3NpXQRJFyO-24" edge="1">
          <mxGeometry relative="1" as="geometry" />
        </mxCell>
        <mxCell id="gUUMjSr0hA3NpXQRJFyO-57" value="Gérer les cartes de paiement" style="ellipse;whiteSpace=wrap;html=1;" parent="1" vertex="1">
          <mxGeometry x="-308" y="255" width="120.5" height="61" as="geometry" />
        </mxCell>
        <mxCell id="gUUMjSr0hA3NpXQRJFyO-58" value="Gérer les adresses" style="ellipse;whiteSpace=wrap;html=1;" parent="1" vertex="1">
          <mxGeometry x="-167.5" y="276" width="115.5" height="51" as="geometry" />
        </mxCell>
        <mxCell id="gUUMjSr0hA3NpXQRJFyO-62" value="Extends" style="endArrow=open;endSize=12;dashed=1;html=1;rounded=0;fontSize=12;curved=1;exitX=0.326;exitY=0.094;exitDx=0;exitDy=0;exitPerimeter=0;" parent="1" source="gUUMjSr0hA3NpXQRJFyO-57" target="gUUMjSr0hA3NpXQRJFyO-34" edge="1">
          <mxGeometry x="-0.1482" y="1" width="160" relative="1" as="geometry">
            <mxPoint x="-162" y="248" as="sourcePoint" />
            <mxPoint x="-225" y="216" as="targetPoint" />
            <mxPoint as="offset" />
            <Array as="points">
              <mxPoint x="-258" y="234" />
            </Array>
          </mxGeometry>
        </mxCell>
        <mxCell id="gUUMjSr0hA3NpXQRJFyO-63" value="Extends" style="endArrow=open;endSize=12;dashed=1;html=1;rounded=0;fontSize=12;curved=1;entryX=0.697;entryY=0.922;entryDx=0;entryDy=0;entryPerimeter=0;" parent="1" source="gUUMjSr0hA3NpXQRJFyO-58" target="gUUMjSr0hA3NpXQRJFyO-34" edge="1">
          <mxGeometry x="-0.2408" y="-13" width="160" relative="1" as="geometry">
            <mxPoint x="-238" y="273" as="sourcePoint" />
            <mxPoint x="-198" y="211" as="targetPoint" />
            <mxPoint as="offset" />
            <Array as="points">
              <mxPoint x="-212" y="244" />
            </Array>
          </mxGeometry>
        </mxCell>
        <mxCell id="gUUMjSr0hA3NpXQRJFyO-64" value="créer une catégorie d&#39;article" style="ellipse;whiteSpace=wrap;html=1;" parent="1" vertex="1">
          <mxGeometry x="-254" y="775" width="140" height="70" as="geometry" />
        </mxCell>
        <mxCell id="gUUMjSr0hA3NpXQRJFyO-65" value="Créer compte du Magasinier" style="ellipse;whiteSpace=wrap;html=1;" parent="1" vertex="1">
          <mxGeometry x="-258" y="1020" width="140" height="70" as="geometry" />
        </mxCell>
        <mxCell id="gUUMjSr0hA3NpXQRJFyO-66" value="" style="endArrow=none;html=1;rounded=0;edgeStyle=elbowEdgeStyle;exitX=0.677;exitY=0.322;exitDx=0;exitDy=0;exitPerimeter=0;" parent="1" source="eptEWOqKpFL5f9zr5Qak-439" target="gUUMjSr0hA3NpXQRJFyO-64" edge="1">
          <mxGeometry width="50" height="50" relative="1" as="geometry">
            <mxPoint x="-424" y="844" as="sourcePoint" />
            <mxPoint x="-225" y="1113" as="targetPoint" />
            <Array as="points">
              <mxPoint x="-319" y="852" />
            </Array>
          </mxGeometry>
        </mxCell>
        <mxCell id="gUUMjSr0hA3NpXQRJFyO-67" value="" style="endArrow=none;html=1;rounded=0;edgeStyle=elbowEdgeStyle;exitX=0.75;exitY=0.1;exitDx=0;exitDy=0;exitPerimeter=0;entryX=0;entryY=0.5;entryDx=0;entryDy=0;" parent="1" source="eptEWOqKpFL5f9zr5Qak-451" target="gUUMjSr0hA3NpXQRJFyO-65" edge="1">
          <mxGeometry width="50" height="50" relative="1" as="geometry">
            <mxPoint x="-439" y="1018" as="sourcePoint" />
            <mxPoint x="-258" y="1048" as="targetPoint" />
            <Array as="points">
              <mxPoint x="-326" y="1085" />
            </Array>
          </mxGeometry>
        </mxCell>
        <mxCell id="gUUMjSr0hA3NpXQRJFyO-69" value="Ajouter un article" style="ellipse;whiteSpace=wrap;html=1;" parent="1" vertex="1">
          <mxGeometry x="-91" y="758" width="140" height="70" as="geometry" />
        </mxCell>
        <mxCell id="gUUMjSr0hA3NpXQRJFyO-70" value="Mettre à jour le prix article" style="ellipse;whiteSpace=wrap;html=1;" parent="1" vertex="1">
          <mxGeometry x="-59" y="838" width="140" height="70" as="geometry" />
        </mxCell>
        <mxCell id="gUUMjSr0hA3NpXQRJFyO-71" value="Ajouter des promotions" style="ellipse;whiteSpace=wrap;html=1;" parent="1" vertex="1">
          <mxGeometry x="-213" y="859" width="140" height="70" as="geometry" />
        </mxCell>
        <mxCell id="gUUMjSr0hA3NpXQRJFyO-72" value="Supprimer compte du Magasinier" style="ellipse;whiteSpace=wrap;html=1;" parent="1" vertex="1">
          <mxGeometry x="-308" y="1110" width="140" height="70" as="geometry" />
        </mxCell>
        <mxCell id="gUUMjSr0hA3NpXQRJFyO-73" value="Envoyer Email" style="ellipse;whiteSpace=wrap;html=1;fillColor=#ffcccc;strokeColor=#36393d;" parent="1" vertex="1">
          <mxGeometry x="-37" y="973" width="140" height="70" as="geometry" />
        </mxCell>
        <mxCell id="gUUMjSr0hA3NpXQRJFyO-74" value="Gérer les utilisateurs" style="ellipse;whiteSpace=wrap;html=1;" parent="1" vertex="1">
          <mxGeometry x="-311" y="1218" width="140" height="70" as="geometry" />
        </mxCell>
        <mxCell id="gUUMjSr0hA3NpXQRJFyO-75" value="Include" style="endArrow=open;endSize=12;dashed=1;html=1;rounded=0;fontSize=12;curved=1;entryX=-0.015;entryY=0.653;entryDx=0;entryDy=0;entryPerimeter=0;" parent="1" source="gUUMjSr0hA3NpXQRJFyO-65" target="gUUMjSr0hA3NpXQRJFyO-73" edge="1">
          <mxGeometry y="-3" width="160" relative="1" as="geometry">
            <mxPoint x="-123" y="1021.29" as="sourcePoint" />
            <mxPoint x="-43" y="1021.29" as="targetPoint" />
            <mxPoint as="offset" />
            <Array as="points" />
          </mxGeometry>
        </mxCell>
        <mxCell id="gUUMjSr0hA3NpXQRJFyO-76" value="Email validation commande" style="ellipse;whiteSpace=wrap;html=1;" parent="1" vertex="1">
          <mxGeometry x="227" y="943" width="140" height="70" as="geometry" />
        </mxCell>
        <mxCell id="gUUMjSr0hA3NpXQRJFyO-77" style="edgeStyle=elbowEdgeStyle;rounded=0;orthogonalLoop=1;jettySize=auto;html=1;fontSize=12;endArrow=block;endFill=0;entryX=0.681;entryY=0.078;entryDx=0;entryDy=0;entryPerimeter=0;" parent="1" source="gUUMjSr0hA3NpXQRJFyO-76" target="gUUMjSr0hA3NpXQRJFyO-73" edge="1">
          <mxGeometry relative="1" as="geometry">
            <Array as="points">
              <mxPoint x="93" y="969" />
            </Array>
            <mxPoint x="254" y="929" as="sourcePoint" />
            <mxPoint x="64" y="946" as="targetPoint" />
          </mxGeometry>
        </mxCell>
        <mxCell id="gUUMjSr0hA3NpXQRJFyO-80" value="Système modérateur" style="shape=umlActor;verticalLabelPosition=bottom;verticalAlign=top;html=1;" parent="1" vertex="1">
          <mxGeometry x="1417" y="518" width="30" height="60" as="geometry" />
        </mxCell>
        <mxCell id="gUUMjSr0hA3NpXQRJFyO-82" value="" style="endArrow=none;html=1;rounded=0;exitX=1;exitY=0.5;exitDx=0;exitDy=0;entryX=0.413;entryY=0.729;entryDx=0;entryDy=0;entryPerimeter=0;edgeStyle=elbowEdgeStyle;elbow=vertical;" parent="1" source="eptEWOqKpFL5f9zr5Qak-486" target="gUUMjSr0hA3NpXQRJFyO-80" edge="1">
          <mxGeometry width="50" height="50" relative="1" as="geometry">
            <mxPoint x="-158" y="576" as="sourcePoint" />
            <mxPoint x="1485" y="543" as="targetPoint" />
            <Array as="points">
              <mxPoint x="978" y="536" />
            </Array>
          </mxGeometry>
        </mxCell>
      </root>
    </mxGraphModel>
  </diagram>
</mxfile>
